<?xml version="1.0"?>
<svg version="1.1" xmlns="http://www.w3.org/2000/svg" width="181" height="50" style=""><path fill="#180ee3" d="M15.423828125,47.66796875q-1.435546875,0-2.501953125-0.30078125l0-3.52734375q1.09375,0.2734375,1.99609375,0.2734375q1.39453125,0,1.99609375-0.8681640625t0.6015625-2.7138671875l0-18.73046875l4.23828125,0l0,18.703125q0,3.5-1.599609375,5.33203125t-4.73046875,1.83203125z M46.85232421875,31.767578125q0,4.962890625-2.4609375,7.62890625t-7.0546875,2.666015625t-7.0546875-2.666015625t-2.4609375-7.65625t2.4677734375-7.6220703125t7.0751953125-2.6318359375t7.0478515625,2.65234375t2.4404296875,7.62890625z M32.26443359375,31.767578125q0,3.349609375,1.271484375,5.044921875t3.80078125,1.6953125q5.072265625,0,5.072265625-6.740234375q0-6.75390625-5.044921875-6.75390625q-2.529296875,0-3.814453125,1.7021484375t-1.28515625,5.0517578125z M52.9194921875,21.80078125l6.220703125,0q4.251953125,0,6.1728515625,1.2099609375t1.9208984375,3.8486328125q0,1.791015625-0.8408203125,2.939453125t-2.2353515625,1.380859375l0,0.13671875q1.900390625,0.423828125,2.7412109375,1.5859375t0.8408203125,3.08984375q0,2.734375-1.9755859375,4.265625t-5.3662109375,1.53125l-7.478515625,0l0-19.98828125z M57.1577734375,29.716796875l2.4609375,0q1.72265625,0,2.4951171875-0.533203125t0.7724609375-1.763671875q0-1.1484375-0.8408203125-1.6474609375t-2.6591796875-0.4990234375l-2.228515625,0l0,4.443359375z M57.1577734375,33.080078125l0,5.208984375l2.76171875,0q1.75,0,2.583984375-0.669921875t0.833984375-2.05078125q0-2.48828125-3.5546875-2.48828125l-2.625,0z M85.45541015625,36.23828125q0,2.70703125-1.9482421875,4.265625t-5.4208984375,1.55859375q-3.19921875,0-5.66015625-1.203125l0-3.9375q2.0234375,0.90234375,3.4248046875,1.271484375t2.5634765625,0.369140625q1.39453125,0,2.1396484375-0.533203125t0.7451171875-1.5859375q0-0.587890625-0.328125-1.0458984375t-0.9638671875-0.8818359375t-2.5908203125-1.353515625q-1.83203125-0.861328125-2.748046875-1.654296875t-1.462890625-1.845703125t-0.546875-2.4609375q0-2.65234375,1.7978515625-4.169921875t4.9697265625-1.517578125q1.55859375,0,2.9736328125,0.369140625t2.9599609375,1.0390625l-1.3671875,3.294921875q-1.599609375-0.65625-2.6455078125-0.916015625t-2.0576171875-0.259765625q-1.203125,0-1.845703125,0.560546875t-0.642578125,1.462890625q0,0.560546875,0.259765625,0.9775390625t0.8271484375,0.806640625t2.6865234375,1.4013671875q2.802734375,1.33984375,3.841796875,2.6865234375t1.0390625,3.3017578125z M107.381953125,41.7890625l-4.224609375,0l0-8.626953125l-7.916015625,0l0,8.626953125l-4.23828125,0l0-19.98828125l4.23828125,0l0,7.833984375l7.916015625,0l0-7.833984375l4.224609375,0l0,19.98828125z M130.62099609375,21.80078125l0,12.93359375q0,2.21484375-0.9912109375,3.8828125t-2.8642578125,2.556640625t-4.4296875,0.888671875q-3.85546875,0-5.98828125-1.9755859375t-2.1328125-5.4072265625l0-12.87890625l4.224609375,0l0,12.236328125q0,2.310546875,0.9296875,3.390625t3.076171875,1.080078125q2.078125,0,3.0146484375-1.0869140625t0.9365234375-3.4111328125l0-12.208984375l4.224609375,0z M137.4401171875,21.80078125l6.220703125,0q4.251953125,0,6.1728515625,1.2099609375t1.9208984375,3.8486328125q0,1.791015625-0.8408203125,2.939453125t-2.2353515625,1.380859375l0,0.13671875q1.900390625,0.423828125,2.7412109375,1.5859375t0.8408203125,3.08984375q0,2.734375-1.9755859375,4.265625t-5.3662109375,1.53125l-7.478515625,0l0-19.98828125z M141.6783984375,29.716796875l2.4609375,0q1.72265625,0,2.4951171875-0.533203125t0.7724609375-1.763671875q0-1.1484375-0.8408203125-1.6474609375t-2.6591796875-0.4990234375l-2.228515625,0l0,4.443359375z M141.6783984375,33.080078125l0,5.208984375l2.76171875,0q1.75,0,2.583984375-0.669921875t0.833984375-2.05078125q0-2.48828125-3.5546875-2.48828125l-2.625,0z"/><path fill="#" d=""/></svg>
