<svg xmlns="http://www.w3.org/2000/svg" version="1.1" xmlns:xlink="http://www.w3.org/1999/xlink" xmlns:svgjs="http://svgjs.dev/svgjs" width="100%" height="100%" viewBox="0 0 1000 600"><rect width="181" height="50" x="0" y="0" fill="#ffffff"/><g><rect width="333.3333333333333" height="333.3333333333333" y="278.8337169211079" fill="#3b82f6" transform="matrix(0.4871176435237203,0,0,0.4871176435237203,0,82.98889705864246)" x="256.6116027832031"/><path d="M380.3700973876697 489.0185177227624L383.82179349016303 489.0185177227624L401.4075900123487 490.89314577842686L408.9358582358901 490.89314577842686Q423.48654266795234 490.89314577842686 430.0328628623362 484.9419456017143Q436.5494270558365 478.9609894241181 436.5494270558365 464.8566450053093L436.5494270558365 464.8566450053093L436.5494270558365 380.4388704986414Q436.5494270558365 376.33254237670974 439.43575914154206 373.41645429012056Q442.3220912272477 370.50036620353137 446.39866334829577 370.50036620353137L446.39866334829577 370.50036620353137L465.85908792614595 370.50036620353137Q470.143952053379 370.50036620353137 473.0600401399681 373.41645429012056Q476.00588422744084 376.33254237670974 476.00588422744084 380.4388704986414L476.00588422744084 380.4388704986414L476.00588422744084 464.52932899559016Q476.00588422744084 491.3097297907967 458.21179569907025 505.9199262246261Q440.41770717069966 520.5003666575719 409.9773182668148 520.5003666575719L409.9773182668148 520.5003666575719L380.3700973876697 520.5003666575719Q376.2935252666216 520.5003666575719 373.4369491817996 517.6140345718663Q370.550617096094 514.7574584870442 370.550617096094 510.6808863659962L370.550617096094 510.6808863659962L370.550617096094 498.83799801433815Q370.550617096094 494.76142589329004 373.31792517826534 491.87509380758445Q376.08523326043667 489.0185177227624 380.3700973876697 489.0185177227624L380.3700973876697 489.0185177227624Z " fill="#ffffff" transform="matrix(0.4871176435237203,0,0,0.4871176435237203,0,82.98889705864246)"/><path d="M682.6960594991347 487.19556875704876L686.0065616957427 487.19556875704876L702.8729996112197 488.9935139155514L710.0933190572699 488.9935139155514Q724.0487981446951 488.9935139155514 730.3273367934344 483.28575150760656Q736.577336630134 477.549450287622 736.577336630134 464.02205338079267L736.577336630134 464.02205338079267L736.577336630134 383.057443624095Q736.577336630134 379.1190875626131 739.3456013979873 376.32228398272014Q742.1138661658406 373.52548040282716 746.0236834152827 373.52548040282716L746.0236834152827 373.52548040282716L764.6880664892624 373.52548040282716Q768.7976554229826 373.52548040282716 771.5944590028756 376.32228398272014Q774.4198013948084 379.1190875626131 774.4198013948084 383.057443624095L774.4198013948084 383.057443624095L774.4198013948084 463.70812644835576Q774.4198013948084 489.39305728410756 757.3535917950533 503.40561399561216Q740.2873821952982 517.389631895077 711.0921774786602 517.389631895077L711.0921774786602 517.389631895077L682.6960594991347 517.389631895077Q678.7862422496924 517.389631895077 676.0465162938789 514.6213671272237Q673.2782515260257 511.88164117141025 673.2782515260257 507.97182392196805L673.2782515260257 507.97182392196805L673.2782515260257 496.61337673015777Q673.2782515260257 492.7035594807155 675.93236104572 489.9352947128623Q678.5864705654144 487.19556875704876 682.6960594991347 487.19556875704876L682.6960594991347 487.19556875704876ZM933.7805278246285 502.492372010341Q913.2611219680667 520.500362407407 873.5921732328501 520.500362407407Q833.9232244976333 520.500362407407 813.3467410169922 502.492372010341Q792.770257536351 484.484381613275 792.770257536351 445.44328674293223Q792.770257536351 406.43073068462917 813.3467410169922 388.4512790996029Q833.9232244976333 370.50036632661636 873.5921732328501 370.50036632661636Q913.2611219680667 370.50036632661636 933.7805278246285 388.4512790996029Q954.2999336811902 406.43073068462917 954.2999336811902 445.44328674293223Q954.2999336811902 484.484381613275 933.7805278246285 502.492372010341ZM906.3547294544535 409.62707763307833Q896.2234511803514 397.58369895231465 873.5921732328501 397.58369895231465Q850.9608952853488 397.58369895231465 840.7725393871672 409.62707763307833Q830.6127223010253 421.6704563138419 830.6127223010253 445.5003643670117Q830.6127223010253 469.33027242018136 840.7725393871672 481.3165734768656Q850.9608952853488 493.30287453354975 873.5921732328501 493.30287453354975Q896.2234511803514 493.30287453354975 906.3547294544535 481.3165734768656Q916.4860077285556 469.33027242018136 916.4860077285556 445.5003643670117Q916.4860077285556 421.6704563138419 906.3547294544535 409.62707763307833ZM974.8764171618313 507.97182392196805L974.8764171618313 383.057443624095Q974.8764171618313 379.1190875626131 977.6732207417243 376.32228398272014Q980.4985631336571 373.52548040282716 984.4083803830993 373.52548040282716L984.4083803830993 373.52548040282716L1065.9723051926312 373.52548040282716Q1095.9665966463813 373.52548040282716 1110.2360026662434 390.76292287482056L1110.2360026662434 390.76292287482056Q1118.141253601247 400.2948860960885 1118.141253601247 415.1065295447053Q1118.141253601247 429.88963418128253 1104.6138566944178 440.9341544406558L1104.6138566944178 440.9341544406558Q1123.8775548212316 451.26520439903595 1123.8775548212316 473.04031798534555Q1123.8775548212316 494.81543157165515 1108.4665963197806 506.08826232734623Q1093.0556378183296 517.389631895077 1070.6812091791855 517.389631895077L1070.6812091791855 517.389631895077L984.4083803830993 517.389631895077Q980.4985631336571 517.389631895077 977.6732207417243 514.6213671272237Q974.8764171618313 511.88164117141025 974.8764171618313 507.97182392196805L974.8764171618313 507.97182392196805ZM1012.690343114466 455.7743367013124L1012.690343114466 490.3062992693787L1070.0818941263515 490.3062992693787Q1077.8159121891167 490.3062992693787 1081.925501122837 485.68301171894336Q1086.0350900565572 481.05972416850807 1086.0350900565572 473.04031798534555Q1086.0350900565572 465.02091180218304 1081.925501122837 460.39762425174774Q1077.8159121891167 455.7743367013124 1070.0818941263515 455.7743367013124L1070.0818941263515 455.7743367013124L1012.690343114466 455.7743367013124ZM1012.690343114466 400.6944294646446L1012.690343114466 429.4044743766072L1066.3718485611873 429.4044743766072Q1072.707464834006 429.4044743766072 1076.5031268352893 425.6373511873636Q1080.3273276486125 421.87022799812 1080.3273276486125 415.1065295447053Q1080.3273276486125 408.3428310912907 1076.5031268352893 404.51863027796765Q1072.707464834006 400.6944294646446 1066.3718485611873 400.6944294646446L1066.3718485611873 400.6944294646446L1012.690343114466 400.6944294646446ZM1136.2063216223926 480.57456436383274L1136.2063216223926 480.57456436383274Q1136.2063216223926 474.6384914595701 1139.7165955032785 472.09853718803464Q1143.2268693841647 469.5300441044595 1146.5373715807727 469.5300441044595L1146.5373715807727 469.5300441044595L1158.495133825417 469.5300441044595Q1167.51339842997 469.5300441044595 1172.2223024165246 479.3759342581643Q1176.931206403079 489.19328559982944 1193.3981009499998 489.19328559982944L1193.3981009499998 489.19328559982944L1228.5008397588608 489.9067559008226Q1246.16636441145 489.9067559008226 1246.16636441145 478.34853702473424L1246.16636441145 478.34853702473424Q1246.16636441145 469.64419935261833 1224.5910225094185 464.6213684336269L1224.5910225094185 464.6213684336269Q1214.9734428520314 462.3097246584092 1203.3296075398239 460.055158507271Q1191.6857722276163 457.8005923561328 1180.2131697876473 454.3759349113659Q1168.7120285356384 450.97981627863874 1159.0944488782513 446.3565287282034Q1149.4483304088246 441.73324117776804 1143.4837186925222 433.6567573705261Q1137.5191069762197 425.58027356328415 1137.5191069762197 414.64990855206975L1137.5191069762197 414.64990855206975Q1137.5191069762197 394.4729684399847 1151.874129432201 383.5996810528498Q1166.2006130761426 372.69785485367515 1201.2177354488845 372.69785485367515L1201.2177354488845 372.69785485367515L1226.702894600358 373.3257087185491Q1247.2793780809993 373.3257087185491 1263.7748114399599 383.885069173247Q1280.29878361096 394.4729684399847 1280.29878361096 410.3405479340714L1280.29878361096 410.3405479340714Q1280.29878361096 416.24808202629436 1276.7599709180345 418.8736527339489Q1273.2496970371483 421.47068462956383 1270.053350088699 421.47068462956383L1270.053350088699 421.47068462956383L1258.1241266560944 421.47068462956383Q1249.0773232395018 421.47068462956383 1244.3684192529472 411.59625566381925Q1239.6595152663929 401.69328788603497 1223.192620719472 401.69328788603497L1223.192620719472 401.69328788603497L1192.9985575814437 401.0939728332007Q1175.3330329288544 401.0939728332007 1175.3330329288544 412.65219170928907L1175.3330329288544 412.65219170928907Q1175.3330329288544 418.9592691700681 1186.5202472484264 422.98324166766923Q1197.707461567998 426.97867535323064 1213.6035798741245 430.06086705352084Q1229.5282369922907 433.11451994177133 1245.5670493586158 437.4238805597697Q1261.6344005369806 441.73324117776804 1272.8216148565525 451.6362089555524Q1284.0088291761244 461.51063792129696 1284.0088291761244 476.2652037458344L1284.0088291761244 476.2652037458344Q1284.0088291761244 496.4136050458797 1269.5967290960634 507.31543124505436Q1255.2131678280425 518.1887186321893 1220.28166189142 518.1887186321893L1220.28166189142 518.1887186321893L1189.8878270691139 517.5894035793551Q1169.3113435884727 517.5894035793551 1152.7588326054324 507.0015043126174Q1136.2063216223926 496.4136050458797 1136.2063216223926 480.57456436383274ZM1304.4711574086066 507.97182392196805L1304.4711574086066 507.97182392196805L1304.4711574086066 383.057443624095Q1304.4711574086066 379.1190875626131 1307.2679609884995 376.32228398272014Q1310.0933033804322 373.52548040282716 1314.2028923141525 373.52548040282716L1314.2028923141525 373.52548040282716L1332.8672753881324 373.52548040282716Q1336.7770926375745 373.52548040282716 1339.5453574054277 376.32228398272014Q1342.285083361241 379.1190875626131 1342.285083361241 383.057443624095L1342.285083361241 383.057443624095L1342.285083361241 428.20584427093877L1411.320469685334 428.20584427093877L1411.320469685334 383.057443624095Q1411.320469685334 379.1190875626131 1414.1172732652271 376.32228398272014Q1416.9426156571599 373.52548040282716 1420.8524329066022 373.52548040282716L1420.8524329066022 373.52548040282716L1439.5168159805817 373.52548040282716Q1443.626404914302 373.52548040282716 1446.3946696821552 376.32228398272014Q1449.1343956379687 379.1190875626131 1449.1343956379687 383.057443624095L1449.1343956379687 383.057443624095L1449.1343956379687 507.97182392196805Q1449.1343956379687 511.88164117141025 1446.2805144339964 514.6213671272237Q1443.426633230024 517.389631895077 1439.5168159805817 517.389631895077L1439.5168159805817 517.389631895077L1420.8524329066022 517.389631895077Q1416.9426156571599 517.389631895077 1414.1172732652271 514.7355223753826Q1411.320469685334 512.0814128556883 1411.320469685334 508.1715956062461L1411.320469685334 508.1715956062461L1411.320469685334 456.6019622504644L1342.285083361241 456.6019622504644L1342.285083361241 508.1715956062461Q1342.285083361241 512.0814128556883 1339.5453574054277 514.7355223753826Q1336.7770926375745 517.389631895077 1332.8672753881324 517.389631895077L1332.8672753881324 517.389631895077L1314.2028923141525 517.389631895077Q1310.2930750647104 517.389631895077 1307.3821162366585 514.6213671272237Q1304.4711574086066 511.88164117141025 1304.4711574086066 507.97182392196805ZM1475.9323401432698 460.5117794999066L1475.9323401432698 460.5117794999066L1475.9323401432698 383.057443624095Q1475.9323401432698 379.1190875626131 1478.7006049111233 376.32228398272014Q1481.4403308669366 373.52548040282716 1485.5784586126965 373.52548040282716L1485.5784586126965 373.52548040282716L1504.3284581227954 373.52548040282716Q1508.1526589361183 373.52548040282716 1510.9494625160114 376.32228398272014Q1513.7462660959045 379.1190875626131 1513.7462660959045 383.057443624095L1513.7462660959045 383.057443624095L1513.7462660959045 460.7115511841847Q1513.7462660959045 475.43757819668235 1520.2245764289219 482.6864364547724Q1526.7028867619392 489.9067559008226 1540.2588224808082 489.9067559008226L1540.2588224808082 489.9067559008226L1556.2976348471334 489.9067559008226Q1569.8535705660024 489.9067559008226 1576.30334208698 482.6864364547724Q1582.7816524199975 475.43757819668235 1582.7816524199975 460.7115511841847L1582.7816524199975 460.7115511841847L1582.7816524199975 383.057443624095Q1582.7816524199975 379.1190875626131 1585.5499171878507 376.32228398272014Q1588.318181955704 373.52548040282716 1592.227999205146 373.52548040282716L1592.227999205146 373.52548040282716L1610.8923822791257 373.52548040282716Q1615.001971212846 373.52548040282716 1617.7987747927389 376.32228398272014Q1620.6241171846716 379.1190875626131 1620.6241171846716 383.057443624095L1620.6241171846716 383.057443624095L1620.6241171846716 460.5117794999066Q1620.6241171846716 487.99465549416107 1604.471149570188 503.0916870631752Q1588.318181955704 518.1887186321893 1557.2964932685236 518.1887186321893L1557.2964932685236 518.1887186321893L1539.2314252473782 518.1887186321893Q1508.1526589361183 518.1887186321893 1492.0282301336742 503.0916870631752Q1475.9323401432698 487.99465549416107 1475.9323401432698 460.5117794999066ZM1647.3079064418139 507.97182392196805L1647.3079064418139 383.057443624095Q1647.3079064418139 379.1190875626131 1650.1047100217068 376.32228398272014Q1652.9300524136395 373.52548040282716 1656.8398696630816 373.52548040282716L1656.8398696630816 373.52548040282716L1738.4037944726138 373.52548040282716Q1768.3980859263638 373.52548040282716 1782.638953134186 390.76292287482056L1782.638953134186 390.76292287482056Q1790.5727428812297 400.2948860960885 1790.5727428812297 415.1065295447053Q1790.5727428812297 429.88963418128253 1777.0168071623607 440.9341544406558L1777.0168071623607 440.9341544406558Q1796.2805052891745 451.26520439903595 1796.2805052891745 473.04031798534555Q1796.2805052891745 494.81543157165515 1780.898085599763 506.08826232734623Q1765.4871270983117 517.389631895077 1743.1126984591683 517.389631895077L1743.1126984591683 517.389631895077L1656.8398696630816 517.389631895077Q1652.9300524136395 517.389631895077 1650.1047100217068 514.6213671272237Q1647.3079064418139 511.88164117141025 1647.3079064418139 507.97182392196805L1647.3079064418139 507.97182392196805ZM1685.1218323944486 455.7743367013124L1685.1218323944486 490.3062992693787L1742.513383406334 490.3062992693787Q1750.2474014690993 490.3062992693787 1754.3569904028195 485.68301171894336Q1758.4665793365398 481.05972416850807 1758.4665793365398 473.04031798534555Q1758.4665793365398 465.02091180218304 1754.3569904028195 460.39762425174774Q1750.2474014690993 455.7743367013124 1742.513383406334 455.7743367013124L1742.513383406334 455.7743367013124L1685.1218323944486 455.7743367013124ZM1685.1218323944486 400.6944294646446L1685.1218323944486 429.4044743766072L1738.8033378411697 429.4044743766072Q1745.1104153019487 429.4044743766072 1748.934616115272 425.6373511873636Q1752.758816928595 421.87022799812 1752.758816928595 415.1065295447053Q1752.758816928595 408.3428310912907 1748.934616115272 404.51863027796765Q1745.1104153019487 400.6944294646446 1738.8033378411697 400.6944294646446L1738.8033378411697 400.6944294646446L1685.1218323944486 400.6944294646446Z " fill="#3b82f6" transform="matrix(0.4871176435237203,0,0,0.4871176435237203,0,82.98889705864246)"/></g></svg>