<?xml version="1.0"?>
<svg version="1.1" xmlns="http://www.w3.org/2000/svg" width="400" height="200" style=""><path fill="#" d=""/><path fill="#0937ed" d="M20.908203125,148.57421875q-3.076171875,0-5.361328125-0.64453125l0-7.55859375q2.34375,0.5859375,4.27734375,0.5859375q2.98828125,0,4.27734375-1.8603515625t1.2890625-5.8154296875l0-40.13671875l9.08203125,0l0,40.078125q0,7.5-3.427734375,11.42578125t-10.13671875,3.92578125z M88.25498046875,114.501953125q0,10.634765625-5.2734375,16.34765625t-15.1171875,5.712890625t-15.1171875-5.712890625t-5.2734375-16.40625t5.2880859375-16.3330078125t15.1611328125-5.6396484375t15.1025390625,5.68359375t5.2294921875,16.34765625z M56.99521484375,114.501953125q0,7.177734375,2.724609375,10.810546875t8.14453125,3.6328125q10.869140625,0,10.869140625-14.443359375q0-14.47265625-10.810546875-14.47265625q-5.419921875,0-8.173828125,3.6474609375t-2.75390625,10.8251953125z M101.2560546875,93.14453125l13.330078125,0q9.111328125,0,13.2275390625,2.5927734375t4.1162109375,8.2470703125q0,3.837890625-1.8017578125,6.298828125t-4.7900390625,2.958984375l0,0.29296875q4.072265625,0.908203125,5.8740234375,3.3984375t1.8017578125,6.62109375q0,5.859375-4.2333984375,9.140625t-11.4990234375,3.28125l-16.025390625,0l0-42.83203125z M110.3380859375,110.107421875l5.2734375,0q3.69140625,0,5.3466796875-1.142578125t1.6552734375-3.779296875q0-2.4609375-1.8017578125-3.5302734375t-5.6982421875-1.0693359375l-4.775390625,0l0,9.521484375z M110.3380859375,117.314453125l0,11.162109375l5.91796875,0q3.75,0,5.537109375-1.435546875t1.787109375-4.39453125q0-5.33203125-7.6171875-5.33203125l-5.625,0z M170.97587890625,124.08203125q0,5.80078125-4.1748046875,9.140625t-11.6162109375,3.33984375q-6.85546875,0-12.12890625-2.578125l0-8.4375q4.3359375,1.93359375,7.3388671875,2.724609375t5.4931640625,0.791015625q2.98828125,0,4.5849609375-1.142578125t1.5966796875-3.3984375q0-1.259765625-0.703125-2.2412109375t-2.0654296875-1.8896484375t-5.5517578125-2.900390625q-3.92578125-1.845703125-5.888671875-3.544921875t-3.134765625-3.955078125t-1.171875-5.2734375q0-5.68359375,3.8525390625-8.935546875t10.6494140625-3.251953125q3.33984375,0,6.3720703125,0.791015625t6.3427734375,2.2265625l-2.9296875,7.060546875q-3.427734375-1.40625-5.6689453125-1.962890625t-4.4091796875-0.556640625q-2.578125,0-3.955078125,1.201171875t-1.376953125,3.134765625q0,1.201171875,0.556640625,2.0947265625t1.7724609375,1.728515625t5.7568359375,3.0029296875q6.005859375,2.87109375,8.232421875,5.7568359375t2.2265625,7.0751953125z M217.961328125,135.9765625l-9.052734375,0l0-18.486328125l-16.962890625,0l0,18.486328125l-9.08203125,0l0-42.83203125l9.08203125,0l0,16.787109375l16.962890625,0l0-16.787109375l9.052734375,0l0,42.83203125z M267.75927734375,93.14453125l0,27.71484375q0,4.74609375-2.1240234375,8.3203125t-6.1376953125,5.478515625t-9.4921875,1.904296875q-8.26171875,0-12.83203125-4.2333984375t-4.5703125-11.5869140625l0-27.59765625l9.052734375,0l0,26.220703125q0,4.951171875,1.9921875,7.265625t6.591796875,2.314453125q4.453125,0,6.4599609375-2.3291015625t2.0068359375-7.3095703125l0-26.162109375l9.052734375,0z M282.3716796875,93.14453125l13.330078125,0q9.111328125,0,13.2275390625,2.5927734375t4.1162109375,8.2470703125q0,3.837890625-1.8017578125,6.298828125t-4.7900390625,2.958984375l0,0.29296875q4.072265625,0.908203125,5.8740234375,3.3984375t1.8017578125,6.62109375q0,5.859375-4.2333984375,9.140625t-11.4990234375,3.28125l-16.025390625,0l0-42.83203125z M291.4537109375,110.107421875l5.2734375,0q3.69140625,0,5.3466796875-1.142578125t1.6552734375-3.779296875q0-2.4609375-1.8017578125-3.5302734375t-5.6982421875-1.0693359375l-4.775390625,0l0,9.521484375z M291.4537109375,117.314453125l0,11.162109375l5.91796875,0q3.75,0,5.537109375-1.435546875t1.787109375-4.39453125q0-5.33203125-7.6171875-5.33203125l-5.625,0z"/></svg>
